<svg viewBox="0 0 25 24" fill="none" xmlns="http://www.w3.org/2000/svg">
<path d="M21.125 10.75H20.125C19.9261 10.75 19.7353 10.671 19.5947 10.5303C19.454 10.3897 19.375 10.1989 19.375 10C19.375 9.80109 19.454 9.61032 19.5947 9.46967C19.7353 9.32902 19.9261 9.25 20.125 9.25H21.125C21.1911 9.24922 21.2542 9.22263 21.3009 9.17592C21.3476 9.1292 21.3742 9.06606 21.375 9V3C21.3742 2.93394 21.3476 2.8708 21.3009 2.82408C21.2542 2.77737 21.1911 2.75078 21.125 2.75H3.125C3.05894 2.75078 2.9958 2.77737 2.94908 2.82408C2.90237 2.8708 2.87578 2.93394 2.875 3V9C2.87578 9.06606 2.90237 9.1292 2.94908 9.17592C2.9958 9.22263 3.05894 9.24922 3.125 9.25H6.125C6.32391 9.25 6.51468 9.32902 6.65533 9.46967C6.79598 9.61032 6.875 9.80109 6.875 10C6.875 10.1989 6.79598 10.3897 6.65533 10.5303C6.51468 10.671 6.32391 10.75 6.125 10.75H3.125C2.66103 10.7495 2.21622 10.5649 1.88815 10.2369C1.56007 9.90878 1.37553 9.46397 1.375 9V3C1.37553 2.53603 1.56007 2.09122 1.88815 1.76315C2.21622 1.43507 2.66103 1.25053 3.125 1.25H21.125C21.589 1.25053 22.0338 1.43507 22.3619 1.76315C22.6899 2.09122 22.8745 2.53603 22.875 3V9C22.8745 9.46397 22.6899 9.90878 22.3619 10.2369C22.0338 10.5649 21.589 10.7495 21.125 10.75Z" fill="#B4B4B4"/>
<path d="M17.125 22.75H7.125C6.66103 22.7495 6.21622 22.5649 5.88815 22.2369C5.56007 21.9088 5.37553 21.464 5.375 21V9C5.375 8.80109 5.45402 8.61032 5.59467 8.46967C5.73532 8.32902 5.92609 8.25 6.125 8.25C6.32391 8.25 6.51468 8.32902 6.65533 8.46967C6.79598 8.61032 6.875 8.80109 6.875 9V21C6.875 21.0663 6.90134 21.1299 6.94822 21.1768C6.99511 21.2237 7.0587 21.25 7.125 21.25H17.125C17.1913 21.25 17.2549 21.2237 17.3018 21.1768C17.3487 21.1299 17.375 21.0663 17.375 21V6.75H6.125C5.92609 6.75 5.73532 6.67098 5.59467 6.53033C5.45402 6.38968 5.375 6.19891 5.375 6C5.375 5.80109 5.45402 5.61032 5.59467 5.46967C5.73532 5.32902 5.92609 5.25 6.125 5.25H18.125C18.3239 5.25 18.5147 5.32902 18.6553 5.46967C18.796 5.61032 18.875 5.80109 18.875 6V21C18.8745 21.464 18.6899 21.9088 18.3619 22.2369C18.0338 22.5649 17.589 22.7495 17.125 22.75Z" fill="#B4B4B4"/>
<path d="M12.125 14.75C11.68 14.75 11.245 14.618 10.875 14.3708C10.505 14.1236 10.2166 13.7722 10.0463 13.361C9.87598 12.9499 9.83142 12.4975 9.91823 12.061C10.0051 11.6246 10.2193 11.2237 10.534 10.909C10.8487 10.5943 11.2496 10.3801 11.686 10.2932C12.1225 10.2064 12.5749 10.251 12.986 10.4213C13.3972 10.5916 13.7486 10.88 13.9958 11.25C14.243 11.62 14.375 12.055 14.375 12.5C14.375 12.6989 14.296 12.8897 14.1553 13.0303C14.0147 13.171 13.8239 13.25 13.625 13.25C13.4261 13.25 13.2353 13.171 13.0947 13.0303C12.954 12.8897 12.875 12.6989 12.875 12.5C12.875 12.3517 12.831 12.2067 12.7486 12.0833C12.6662 11.96 12.5491 11.8639 12.412 11.8071C12.275 11.7503 12.1242 11.7355 11.9787 11.7644C11.8332 11.7934 11.6996 11.8648 11.5947 11.9697C11.4898 12.0746 11.4184 12.2082 11.3894 12.3537C11.3605 12.4992 11.3753 12.65 11.4321 12.787C11.4889 12.9241 11.585 13.0412 11.7083 13.1236C11.8317 13.206 11.9767 13.25 12.125 13.25C12.3239 13.25 12.5147 13.329 12.6553 13.4697C12.796 13.6103 12.875 13.8011 12.875 14C12.875 14.1989 12.796 14.3897 12.6553 14.5303C12.5147 14.671 12.3239 14.75 12.125 14.75Z" fill="#B4B4B4"/>
<path d="M12.125 17.75C11.5285 17.7492 10.9567 17.5119 10.5349 17.0901C10.1131 16.6683 9.87579 16.0965 9.875 15.5C9.875 15.3011 9.95402 15.1103 10.0947 14.9697C10.2353 14.829 10.4261 14.75 10.625 14.75C10.8239 14.75 11.0147 14.829 11.1553 14.9697C11.296 15.1103 11.375 15.3011 11.375 15.5C11.375 15.6483 11.419 15.7933 11.5014 15.9167C11.5838 16.04 11.7009 16.1361 11.838 16.1929C11.975 16.2497 12.1258 16.2645 12.2713 16.2356C12.4168 16.2066 12.5504 16.1352 12.6553 16.0303C12.7602 15.9254 12.8317 15.7918 12.8606 15.6463C12.8895 15.5008 12.8747 15.35 12.8179 15.213C12.7611 15.0759 12.665 14.9588 12.5417 14.8764C12.4183 14.794 12.2733 14.75 12.125 14.75C11.9261 14.75 11.7353 14.671 11.5947 14.5303C11.454 14.3897 11.375 14.1989 11.375 14C11.375 13.8011 11.454 13.6103 11.5947 13.4697C11.7353 13.329 11.9261 13.25 12.125 13.25C12.7217 13.25 13.294 13.4871 13.716 13.909C14.1379 14.331 14.375 14.9033 14.375 15.5C14.375 16.0967 14.1379 16.669 13.716 17.091C13.294 17.5129 12.7217 17.75 12.125 17.75Z" fill="#B4B4B4"/>
<path d="M12.125 11.75C11.9261 11.75 11.7353 11.671 11.5947 11.5303C11.454 11.3897 11.375 11.1989 11.375 11V10C11.375 9.80109 11.454 9.61032 11.5947 9.46967C11.7353 9.32902 11.9261 9.25 12.125 9.25C12.3239 9.25 12.5147 9.32902 12.6553 9.46967C12.796 9.61032 12.875 9.80109 12.875 10V11C12.875 11.1989 12.796 11.3897 12.6553 11.5303C12.5147 11.671 12.3239 11.75 12.125 11.75Z" fill="#B4B4B4"/>
<path d="M12.125 18.75C11.9261 18.75 11.7353 18.671 11.5947 18.5303C11.454 18.3897 11.375 18.1989 11.375 18V17C11.375 16.8011 11.454 16.6103 11.5947 16.4697C11.7353 16.329 11.9261 16.25 12.125 16.25C12.3239 16.25 12.5147 16.329 12.6553 16.4697C12.796 16.6103 12.875 16.8011 12.875 17V18C12.875 18.1989 12.796 18.3897 12.6553 18.5303C12.5147 18.671 12.3239 18.75 12.125 18.75Z" fill="#B4B4B4"/>
<path d="M19.125 6.75H5.125C4.92609 6.75 4.73532 6.67098 4.59467 6.53033C4.45402 6.38968 4.375 6.19891 4.375 6C4.375 5.80109 4.45402 5.61032 4.59467 5.46967C4.73532 5.32902 4.92609 5.25 5.125 5.25H19.125C19.3239 5.25 19.5147 5.32902 19.6553 5.46967C19.796 5.61032 19.875 5.80109 19.875 6C19.875 6.19891 19.796 6.38968 19.6553 6.53033C19.5147 6.67098 19.3239 6.75 19.125 6.75Z" fill="#B4B4B4"/>
</svg>
