<svg viewBox="0 0 25 24" fill="none" xmlns="http://www.w3.org/2000/svg">
<g clip-path="url(#clip0_105_2694)">
<path d="M23.375 8.8V6.4C23.375 5.07452 22.3197 4 21.0179 4H3.73214C2.43033 4 1.375 5.07452 1.375 6.4V8.8M23.375 8.8H1.375M23.375 8.8V17.6C23.375 18.9255 22.3197 20 21.0179 20H3.73214C2.43033 20 1.375 18.9255 1.375 17.6V8.8M13.9464 14.4C13.5125 14.4 13.1607 14.7582 13.1607 15.2C13.1607 15.6418 13.5125 16 13.9464 16H18.6607C19.0947 16 19.4464 15.6418 19.4464 15.2C19.4464 14.7582 19.0947 14.4 18.6607 14.4H13.9464Z" stroke="#B4B4B4" stroke-width="1.5"/>
</g>
<defs>
<clipPath id="clip0_105_2694">
<rect width="24" height="24" fill="white" transform="translate(0.375)"/>
</clipPath>
</defs>
</svg>
