<svg viewBox="0 0 22 22" fill="none" xmlns="http://www.w3.org/2000/svg">
<path d="M8.15722 19.6835V16.6168C8.1572 15.8367 8.79312 15.2029 9.58101 15.1977H12.4671C13.2587 15.1977 13.9005 15.833 13.9005 16.6168V16.6168V19.693C13.9003 20.3553 14.4343 20.8966 15.103 20.9121H17.0271C18.9451 20.9121 20.5 19.3728 20.5 17.4739V17.4739V8.74994C20.4898 8.00294 20.1355 7.30146 19.538 6.84514L12.9577 1.59741C11.8049 0.683676 10.1662 0.683676 9.01342 1.59741L2.46203 6.85467C1.86226 7.30913 1.50739 8.01178 1.5 8.75947V17.4739C1.5 19.3728 3.05488 20.9121 4.97291 20.9121H6.89696C7.58235 20.9121 8.13797 20.362 8.13797 19.6835V19.6835" stroke="#363636" stroke-width="1.5" stroke-linecap="round" stroke-linejoin="round"/>
</svg>
