<svg viewBox="0 0 21 17" fill="none" xmlns="http://www.w3.org/2000/svg">
<path d="M20.7881 5.38042C20.8732 5.19844 20.8965 4.99786 20.8549 4.804C20.8134 4.61015 20.709 4.43169 20.5548 4.29117L16.1099 0.293891C15.9006 0.105715 15.6168 -1.83874e-07 15.3209 -1.94222e-07C15.025 -2.0457e-07 14.7412 0.105715 14.5319 0.293891C14.3227 0.482066 14.2051 0.737287 14.2051 1.00341C14.2051 1.26953 14.3227 1.52475 14.5319 1.71292L17.375 4.00136L1.98622 4.00136C1.69151 4.00136 1.40886 4.10665 1.20047 4.29406C0.992073 4.48146 0.875 4.73565 0.875 5.00068C0.875 5.26572 0.992073 5.5199 1.20047 5.70731C1.40886 5.89471 1.69151 6 1.98622 6L19.7658 6C19.9852 5.99902 20.1993 5.93965 20.3813 5.8294C20.5632 5.71914 20.7048 5.56292 20.7881 5.38042Z" fill="#B4B4B4"/>
<path d="M7.21965 15.2871L4.375 12.9986L19.7639 12.9986C20.0586 12.9986 20.3412 12.8934 20.5496 12.7059C20.7579 12.5185 20.875 12.2644 20.875 11.9993C20.875 11.7343 20.7579 11.4801 20.5496 11.2927C20.3412 11.1053 20.0586 11 19.7639 11L1.9864 11C1.76705 11.001 1.55292 11.0603 1.37101 11.1706C1.1891 11.2809 1.04755 11.4371 0.964197 11.6196C0.901997 11.7382 0.871555 11.8682 0.875311 11.9993C0.874466 12.1308 0.902491 12.2612 0.957785 12.383C1.01308 12.5047 1.09455 12.6155 1.19753 12.7088L5.6419 16.7061C5.7455 16.7993 5.86849 16.8732 6.00384 16.9236C6.1392 16.974 6.28427 17 6.43078 17C6.57729 17 6.72236 16.974 6.85772 16.9236C6.99307 16.8732 7.11606 16.7993 7.21965 16.7061C7.32325 16.6129 7.40543 16.5023 7.4615 16.3806C7.51756 16.2588 7.54642 16.1284 7.54642 15.9966C7.54642 15.8648 7.51756 15.7343 7.4615 15.6126C7.40543 15.4909 7.32325 15.3803 7.21965 15.2871Z" fill="#B4B4B4"/>
</svg>
